<?xml version="1.0" encoding="UTF-8"?>
<svg version="1.1" xmlns="http://www.w3.org/2000/svg" width="5584" height="1447">
<path d="M0 0 C2.64792194 3.57896546 2.53235365 7.73299645 2 12 C0.77734375 15.21875 0.77734375 15.21875 -1.0625 18.5 C-1.58227417 19.43162964 -1.58227417 19.43162964 -2.11254883 20.38208008 C-9.58491024 33.53689341 -17.86231788 46.2655269 -26.1809082 58.89575195 C-42.31632374 80.99362056 -42.31632374 80.99362056 -48.875 106.1875 C-48.40826419 109.76874052 -48.40826419 109.76874052 -47 111 C-41.41300736 111.48429961 -37.58733594 110.28675773 -32.75 107.6875 C-31.72289917 107.15552002 -31.72289917 107.15552002 -30.67504883 106.61279297 C-24.43462834 103.33574769 -18.36082282 99.77068462 -12.27587891 96.21630859 C19.67032265 77.59333688 58.77307269 60.05364655 96.77734375 66.65625 C103.74591699 68.73695655 109.30921532 72.56329565 115 77 C115.886875 77.598125 116.77375 78.19625 117.6875 78.8125 C128.84558824 89.36744834 133.42951425 104.9649426 134.20483398 119.9621582 C134.33077393 124.53741128 134.33410367 129.1108721 134.3125 133.6875 C134.31034485 134.50635681 134.3081897 135.32521362 134.30596924 136.16888428 C134.2478565 149.96310254 133.50073361 163.4069713 131 177 C130.81195801 178.03640625 130.62391602 179.0728125 130.43017578 180.140625 C119.39169074 238.87203947 90.06254841 297.82207337 49.16015625 341.6640625 C47.37351949 343.59608561 45.66069943 345.56101557 43.94921875 347.55859375 C39.59022811 352.55357304 34.93560709 357.2504601 30.24951172 361.93579102 C28.76106763 363.42641615 27.28082723 364.92487017 25.80078125 366.42382812 C19.52732407 372.73363979 12.97210908 378.45735205 6 384 C4.97240151 384.86333059 3.94898628 385.7317211 2.93359375 386.609375 C-41.47893525 424.69711505 -96.08482487 451.55124127 -153.4375 462.8125 C-154.43015869 463.00755127 -155.42281738 463.20260254 -156.44555664 463.40356445 C-175.05950436 466.85138041 -193.69374965 467.51043565 -212.5703125 468.10449219 C-237.0369832 467.29496414 -237.0369832 467.29496414 -258.72143555 475.62548828 C-262.84609599 480.44253052 -266.47141684 485.40198647 -269.875 490.75 C-270.41890381 491.5963501 -270.96280762 492.4427002 -271.52319336 493.31469727 C-283.04719036 511.36997958 -294.04700128 529.76243009 -304.55078125 548.42822266 C-306.04788104 551.08496948 -307.55421945 553.7363051 -309.0625 556.38671875 C-322.09561637 579.31695221 -334.77189188 602.4412166 -347.22607422 625.69042969 C-348.75685193 628.54636454 -350.2903164 631.40083471 -351.82531738 634.25450134 C-358.51492605 646.69202205 -365.14903759 659.15507854 -371.6484375 671.69335938 C-375.05304084 678.24102644 -378.56570757 684.72282506 -382.125 691.1875 C-386.39031005 698.94192044 -390.44832887 706.77220262 -394.36962891 714.70556641 C-397.36619647 720.76164965 -400.47701301 726.74655653 -403.64170837 732.71609497 C-417.23357767 758.42763237 -430.30202007 784.41535054 -443.30639648 810.42749023 C-444.98332121 813.78142152 -446.66309346 817.13390204 -448.34545898 820.48510742 C-458.10950423 839.93597968 -467.67555074 859.43724569 -476.72720337 879.23110962 C-478.42418962 882.92279829 -480.16344161 886.59320252 -481.91796875 890.2578125 C-495.33656629 918.39261705 -508.08179503 946.95940385 -518.65332031 976.29760742 C-521.66360766 984.56844026 -524.00371496 990.50208967 -532 995 C-539.9106375 997.37638102 -546.50516278 996.03059463 -553.9453125 992.6796875 C-559.21328589 989.78297579 -563.58318328 986.04817977 -568 982 C-568.72058594 981.34902344 -569.44117188 980.69804688 -570.18359375 980.02734375 C-583.02577962 967.8360289 -592.61937639 951.64523681 -593.45458984 933.73168945 C-594.40388006 885.77211867 -554.54416365 828.31812365 -531.953125 787.375 C-529.21085692 782.40255179 -526.52624758 777.40036679 -523.84643555 772.39404297 C-517.27962703 760.13036855 -510.5226427 747.98978921 -503.64306641 735.89941406 C-500.80074983 730.88376002 -497.99700016 725.84658326 -495.1875 720.8125 C-489.84446039 711.24926594 -484.43007712 701.72842344 -478.98233032 692.22463989 C-474.22768426 683.92853139 -469.52872121 675.60325275 -464.875 667.25 C-459.81687688 658.17890896 -454.6413477 649.1843184 -449.38793945 640.22509766 C-444.89402132 632.55456258 -440.46522583 624.84810991 -436.0625 617.125 C-429.03438099 604.79951217 -421.95759399 592.50277644 -414.85888672 580.21777344 C-412.36325301 575.89777709 -409.87021344 571.57628677 -407.37744141 567.25463867 C-406.12609558 565.08536803 -404.87446808 562.91625985 -403.62255859 560.74731445 C-400.5051893 555.34606454 -397.39145551 549.94278115 -394.28515625 544.53515625 C-387.27222213 532.33618681 -380.17161655 520.19493647 -372.97851562 508.10131836 C-367.81636834 499.4099096 -362.74878153 490.66718096 -357.71044922 481.90356445 C-351.29096683 470.74613206 -344.7772753 459.64485235 -338.25694275 448.54618835 C-335.70186876 444.19677286 -333.15064809 439.84511507 -330.6015625 435.4921875 C-322.61620927 421.85704492 -314.60917819 408.23513112 -306.56054688 394.63720703 C-303.87143446 390.09280899 -301.18595499 385.54626466 -298.5 381 C-297.41277142 379.16014975 -296.32553186 377.32030598 -295.23828125 375.48046875 C-293.11021675 371.87917796 -290.98264123 368.27759899 -288.85546875 364.67578125 C-279.90873248 349.52822699 -270.93999095 334.39374109 -261.96887207 319.26062012 C-256.9778078 310.84126646 -251.98784611 302.42126073 -247 294 C-246.44248047 293.05882324 -245.88496094 292.11764648 -245.31054688 291.14794922 C-238.3076289 279.32254793 -231.34230136 267.47543342 -224.39675903 255.61627197 C-219.2667898 246.85746846 -214.11722534 238.11056973 -208.9465332 229.37573242 C-204.13956245 221.24946869 -199.36848984 213.10230762 -194.59963989 204.9536438 C-190.06752701 197.21065492 -185.51096172 189.48326229 -180.92260742 181.7734375 C-174.1175126 170.33759742 -167.43871612 158.83905592 -160.86132812 147.27148438 C-156.60803246 139.79405669 -152.29393485 132.35526332 -147.9375 124.9375 C-133.90010308 100.97505348 -120.3808422 76.61339419 -107.84765625 51.828125 C-107.13732456 50.42934362 -106.42695682 49.03058055 -105.71655273 47.63183594 C-104.35735777 44.95416418 -103.01412971 42.26929819 -101.67993164 39.57910156 C-97.88011376 32.0177184 -93.59939395 25.390395 -88 19 C-87.4639917 18.35724121 -86.9279834 17.71448242 -86.37573242 17.05224609 C-73.97952753 2.50237933 -50.96362333 -2.80614261 -32.90234375 -4.37109375 C-7.80499323 -6.304033 -7.80499323 -6.304033 0 0 Z M-69.19677734 191.46777344 C-70.57220671 192.63649733 -71.97331706 193.77506722 -73.38525391 194.89941406 C-80.36478952 200.46341379 -86.73931224 206.42884138 -93.01660156 212.75585938 C-94.62347307 214.37346287 -96.24078494 215.98006913 -97.859375 217.5859375 C-104.35263167 224.07095809 -110.27967916 230.8131192 -116 238 C-116.934761 239.10184388 -117.87612688 240.19817067 -118.828125 241.28515625 C-126.50703424 250.09113121 -133.27417741 259.45509692 -140 269 C-140.57685547 269.81452637 -141.15371094 270.62905273 -141.74804688 271.46826172 C-161.85510676 299.86809519 -181.99629693 329.05429614 -197.3125 360.375 C-197.67947998 361.10460937 -198.04645996 361.83421875 -198.42456055 362.5859375 C-201.36946322 368.83622592 -203.20377707 375.64209555 -200.8125 382.3125 C-199.9153125 383.6428125 -199.9153125 383.6428125 -199 385 C-198.484375 385.804375 -197.96875 386.60875 -197.4375 387.4375 C-187.10334608 398.30161053 -173.81780965 403.19787784 -159.1015625 404.2890625 C-119.50192349 405.14485038 -87.39202196 381.14259175 -60 355 C-54.03594581 349.23557943 -48.36439598 343.32351875 -43 337 C-41.83791016 335.67162109 -41.83791016 335.67162109 -40.65234375 334.31640625 C-32.22733775 324.62224871 -24.5882231 314.35501858 -17 304 C-16.45666016 303.26201172 -15.91332031 302.52402344 -15.35351562 301.76367188 C10.7476723 266.16518847 39.62992628 218.05817488 33.4375 171.9375 C31.88504256 165.24838806 28.57366343 158.43152352 22.8125 154.4375 C-5.67366902 139.8779025 -49.50638112 174.19193819 -69.19677734 191.46777344 Z " fill="#FEFEFE" transform="translate(1576,406)"/>
<path d="M0 0 C0.6680365 -0.00785522 1.336073 -0.01571045 2.02435303 -0.02380371 C11.48998892 -0.110455 22.30577527 0.03857964 30 6.375 C33.94206242 11.70211138 34.96298597 15.82468915 34 22.375 C29.71001816 41.81398023 18.92700947 59.40109452 9 76.375 C8.2891626 77.60742432 8.2891626 77.60742432 7.56396484 78.86474609 C-5.75219218 101.94767302 -20.80426272 124.22041553 -37 145.375 C-37.58475098 146.14231445 -38.16950195 146.90962891 -38.77197266 147.70019531 C-45.82291395 156.93280093 -53.03785919 165.99041461 -60.63037109 174.78320312 C-62.07099475 176.45751083 -63.49931403 178.14174464 -64.92578125 179.828125 C-71.26731268 187.30848892 -77.79249248 194.58305646 -84.48681641 201.74853516 C-86.03460572 203.4121964 -87.57147145 205.08533726 -89.10546875 206.76171875 C-97.33997061 215.75602875 -105.68560087 224.48088158 -115 232.375 C-115.87140625 233.13554687 -116.7428125 233.89609375 -117.640625 234.6796875 C-134.71304884 249.33275716 -153.91101139 262.06807612 -177 263.375 C-177.88558594 263.42785156 -178.77117187 263.48070312 -179.68359375 263.53515625 C-186.4305573 263.75038532 -193.06794849 263.24212089 -198.6875 259.14453125 C-200.6078081 256.55554443 -200.8610953 254.57774546 -201 251.375 C-199.91796875 248.69140625 -199.91796875 248.69140625 -198.1875 245.9375 C-197.5378125 244.88949219 -196.888125 243.84148437 -196.21875 242.76171875 C-194.32853621 239.84735586 -192.38503662 236.97006043 -190.43652344 234.09448242 C-171.73557928 206.47805687 -157.33267771 174.94573123 -150 142.375 C-149.82114258 141.63000244 -149.64228516 140.88500488 -149.45800781 140.11743164 C-148.88068025 136.66054435 -148.83766911 133.25966766 -148.83203125 129.765625 C-148.82870285 129.03937927 -148.82537445 128.31313354 -148.82194519 127.56488037 C-148.81689846 126.03186675 -148.81453617 124.49884223 -148.81469727 122.96582031 C-148.81251999 120.6462951 -148.79436607 118.32725315 -148.77539062 116.0078125 C-148.71490061 100.76155639 -151.43803388 89.66968978 -162.03515625 78.19140625 C-171.27461428 69.64995896 -183.0280731 66.67665622 -195.39453125 67.03125 C-229.6139444 70.2937726 -258.67142025 92.00481354 -283.08203125 114.67578125 C-285.77812414 117.1697574 -288.50622684 119.62125619 -291.25 122.0625 C-297.5496743 127.72716713 -303.44174527 133.62823079 -308.9609375 140.0546875 C-311.03526851 142.41513313 -313.16422735 144.71391975 -315.30908203 147.01000977 C-320.25112681 152.30417716 -325.00921997 157.67523463 -329.54296875 163.328125 C-331.39945546 165.63028658 -333.27495624 167.90682341 -335.17578125 170.171875 C-343.27708677 179.84878425 -350.90147365 189.79157076 -358.29296875 200.01953125 C-359.95508778 202.3130273 -361.63161942 204.59523086 -363.3125 206.875 C-371.31267776 217.76789064 -378.77447226 228.95533165 -386 240.375 C-386.54156738 241.2299707 -387.08313477 242.08494141 -387.64111328 242.96582031 C-436.93231724 321.05292512 -493.04007779 424.48889399 -482.2578125 535.27734375 C-479.15359049 548.36727108 -473.25674662 561.45852979 -464 571.375 C-463.43152344 571.98472656 -462.86304688 572.59445312 -462.27734375 573.22265625 C-445.24684457 589.67462468 -420.79759213 590.83408689 -398.55078125 590.5859375 C-389.76981683 590.41029653 -381.51005968 589.52472683 -373 587.375 C-372.21012695 587.17632324 -371.42025391 586.97764648 -370.60644531 586.77294922 C-345.96667097 580.3608442 -323.21326884 568.78754449 -303 553.375 C-302.4229834 552.94074707 -301.8459668 552.50649414 -301.25146484 552.05908203 C-288.28679782 542.2757091 -276.77852575 531.23328252 -265.25 519.8125 C-264.374646 518.95027832 -263.49929199 518.08805664 -262.59741211 517.19970703 C-256.62846629 511.23809893 -251.26814875 504.95725412 -246 498.375 C-245.05243733 497.25068911 -244.09922024 496.13108012 -243.13671875 495.01953125 C-235.17334461 485.811483 -227.44705025 476.26672163 -220.83984375 466.02734375 C-219 463.375 -219 463.375 -216 461.375 C-211.49375779 461.04120428 -207.92794771 461.05851802 -204 463.375 C-198.07693801 468.6939686 -196.32416919 473.98352047 -195.75 481.76171875 C-194.41322499 522.40803395 -233.72862319 567.42297671 -259.6640625 595.79296875 C-261.57251241 597.90247609 -263.44008809 600.03627802 -265.30078125 602.1875 C-275.46837889 613.82257193 -286.54778152 624.24146583 -299 633.375 C-299.55333008 633.78911133 -300.10666016 634.20322266 -300.67675781 634.62988281 C-346.34306606 668.79307435 -400.79561307 689.9302042 -458.0625 689.6875 C-458.95875092 689.68567719 -459.85500183 689.68385437 -460.77841187 689.68197632 C-499.09870661 689.55112923 -537.71063226 682.36933753 -568 657.375 C-568.79792969 656.72917969 -569.59585938 656.08335937 -570.41796875 655.41796875 C-599.65153224 630.71284023 -611.33941226 590.93897638 -614.48217773 554.15771484 C-619.76135217 480.71000066 -594.46818905 408.71043807 -563 343.375 C-562.51176758 342.36002441 -562.02353516 341.34504883 -561.52050781 340.29931641 C-554.26773559 325.31328178 -546.36487642 310.76648041 -538 296.375 C-537.20142578 294.99465576 -537.20142578 294.99465576 -536.38671875 293.58642578 C-509.83408591 247.77344339 -479.25110315 204.22927927 -444.87060547 163.94628906 C-442.11984835 160.72057388 -439.45143924 157.44238108 -436.8125 154.125 C-426.86108405 141.94853154 -415.5912657 130.87724369 -404.5 119.75 C-403.58065674 118.82598389 -402.66131348 117.90196777 -401.71411133 116.94995117 C-396.6362183 111.88407245 -391.46198408 107.02282218 -386 102.375 C-385.03578125 101.529375 -384.0715625 100.68375 -383.078125 99.8125 C-373.42819299 91.49543153 -363.2644669 83.91283926 -353 76.375 C-351.95682617 75.59987061 -351.95682617 75.59987061 -350.89257812 74.80908203 C-285.16988903 26.07072513 -200.19182587 -7.2025168 -117.42016602 4.26806641 C-107.17403409 5.90610303 -97.53456243 9.08031441 -87.9453125 13.03125 C-87.27459717 13.30670654 -86.60388184 13.58216309 -85.9128418 13.8659668 C-84.04866572 14.64126682 -82.19390053 15.43908414 -80.33984375 16.23828125 C-74.85120063 18.10634575 -70.87129926 17.64594148 -65.62109375 15.328125 C-64.62416504 14.89701416 -63.62723633 14.46590332 -62.60009766 14.02172852 C-61.55644043 13.56080811 -60.5127832 13.0998877 -59.4375 12.625 C-42.49193404 5.38121942 -42.49193404 5.38121942 -34 3.375 C-32.783125 3.07980469 -31.56625 2.78460938 -30.3125 2.48046875 C-20.28059254 0.32013819 -10.22152177 0.05956913 0 0 Z " fill="#FEFEFE" transform="translate(680,171.625)"/>
<path d="M0 0 C1 1 1 1 1.0625 4.5625 C-1.61044849 24.68822977 -19.65207208 45.12579944 -30.64697266 61.48388672 C-47.59265984 86.51440525 -47.59265984 86.51440525 -60.625 113.6875 C-60.8729834 114.32260498 -61.1209668 114.95770996 -61.37646484 115.61206055 C-62.90503125 119.85025592 -63.34546203 123.51447716 -63 128 C-61.58333333 130.58333333 -61.58333333 130.58333333 -59 132 C-53.17480984 132.8961831 -48.76253237 131.25593162 -44 128 C-41.2002567 125.62639723 -38.52089469 123.15574892 -35.84765625 120.640625 C-32.31016945 117.36032174 -28.60144975 114.34585099 -24.83984375 111.328125 C-22.40630497 109.33309183 -20.06368785 107.26627073 -17.72119141 105.16650391 C-2.09395966 91.37016082 16.90484639 81.49971049 35.11083984 71.578125 C37.72455863 70.15045234 40.32604284 68.70290497 42.92578125 67.25 C60.79940677 57.39513799 80.04148683 49.44135538 100 45 C100.7110791 44.83918945 101.4221582 44.67837891 102.15478516 44.51269531 C117.93419015 41.08008198 139.71804868 37.97878331 154.31640625 46.32421875 C161.64590286 51.46701471 165.8847357 57.34543805 168 66 C168.42311193 69.51186305 168.47673101 72.96544265 168.4375 76.5 C168.42722778 77.93641846 168.42722778 77.93641846 168.41674805 79.40185547 C168.11786587 92.85491144 164.6336004 104.80853664 159 117 C157.94269505 119.31468293 156.89053916 121.63151581 155.84472656 123.95141602 C155.130634 125.53232523 154.40896553 127.10984068 153.67871094 128.68334961 C150.23981097 136.10228954 150.23981097 136.10228954 151 144 C154.22488498 145.61244249 157.503224 145.45527644 161 145 C165.93706066 143.17219484 168.85074744 140.10357152 172 136 C173.1262169 134.97795816 174.27514004 133.98074122 175.4375 133 C179.32686165 129.6849553 182.91229921 126.13297146 186.5 122.5 C190.52672874 118.43207711 194.57346927 114.48189738 198.9453125 110.78125 C201.51507071 108.55347482 203.96328965 106.20840163 206.4375 103.875 C213.84334243 97.00519271 221.88723207 91.00212912 230 85 C230.70366699 84.47680176 231.40733398 83.95360352 232.13232422 83.41455078 C245.10147218 73.80078414 258.49574047 64.8407915 272 56 C273.3929126 55.08468506 273.3929126 55.08468506 274.81396484 54.15087891 C309.05388859 31.72247296 350.73603307 4.88656786 393.6484375 13.75390625 C403.39894465 16.46995661 412.50346763 21.18543894 418 30 C428.60616538 53.31996619 421.57954496 80.55266684 413.08740234 103.46191406 C404.47973384 125.66412835 392.48730426 146.67590134 381.015625 167.4921875 C378.86734827 171.39672999 376.7591799 175.32034173 374.671875 179.2578125 C367.14604852 193.43558083 359.21514385 207.28636819 350.84375 220.98144531 C349.04392805 223.92808179 347.25473136 226.8808958 345.46875 229.8359375 C338.98423756 240.55114336 332.39630736 251.19799935 325.74609375 261.81103516 C318.42674834 273.49746423 311.19027856 285.23376539 304 297 C303.3709375 298.02706055 302.741875 299.05412109 302.09375 300.11230469 C287.9900848 323.18501948 275.06594726 346.7996698 262.7409668 370.85864258 C258.70812939 378.7262238 254.60894965 386.55048327 250.375 394.3125 C249.91448242 395.15868896 249.45396484 396.00487793 248.97949219 396.87670898 C237.52480846 417.73759577 237.52480846 417.73759577 233 420 C225.86407274 420.72815584 220.40195857 418.7581742 214.89453125 414.29296875 C203.06820564 402.32939371 197.68884756 382.63724708 197.5 366.25 C198.01829876 320.82543257 226.83605999 273.05120626 249 235 C249.67131975 233.8421095 250.34237055 232.68406304 251.01318359 231.52587891 C258.11627372 219.2685929 265.27685266 207.06057208 272.8125 195.0625 C292.52047504 165.61266418 292.52047504 165.61266418 299 132 C297.39701349 128.25969815 296.40262302 127.26841535 293 125 C269.74452288 122.13453914 247.90993026 135.61371192 230 149 C228.9584375 149.76828125 227.916875 150.5365625 226.84375 151.328125 C206.45471493 166.56245428 188.35687499 184.56288569 170.375 202.5 C169.76395416 203.108367 169.15290833 203.71673401 168.52334595 204.34353638 C159.75915447 213.07558233 159.75915447 213.07558233 151.48583984 222.26904297 C148.96350825 225.20748053 146.28168188 227.99605133 143.625 230.8125 C138.9748659 235.78184553 134.55033062 240.85896172 130.296875 246.17578125 C128.15281686 248.81209764 125.94858372 251.37671746 123.71411133 253.93579102 C117.90256566 260.60424459 112.51254463 267.49670464 107.2578125 274.609375 C103.60437987 279.55451663 99.86260608 284.43086532 96.125 289.3125 C91.01800201 295.9950226 85.97106083 302.7157798 81 309.5 C75.91049145 316.43897278 70.76423963 323.33219532 65.5625 330.1875 C64.91216797 331.04859375 64.26183594 331.9096875 63.59179688 332.796875 C52.29603417 347.63344719 40.86801847 357.31875491 22.01464844 360.59204102 C17.0485321 361.26408348 12.13046291 361.3399007 7.125 361.3125 C6.07650879 361.30831055 5.02801758 361.30412109 3.94775391 361.29980469 C-16.80817035 360.99745588 -16.80817035 360.99745588 -24 354 C-26.96168903 348.43202463 -25.78568365 343.71483135 -24.23046875 337.765625 C-21.76984345 330.23533044 -18.41759534 323.13584612 -15 316 C-14.62987793 315.21737793 -14.25975586 314.43475586 -13.87841797 313.62841797 C-7.61202346 300.44439951 -0.42405241 287.87684162 7.02587891 275.33203125 C9.13655451 271.76951571 11.23274808 268.19880936 13.32421875 264.625 C13.68880692 264.0021109 14.05339508 263.3792218 14.42903137 262.73745728 C15.16720933 261.47614673 15.90533287 260.21480434 16.6434021 258.95343018 C25.34310951 244.08756132 25.34310951 244.08756132 28.84375 238.2265625 C56.2997086 196.17956046 56.2997086 196.17956046 65.5 148.375 C64.37353081 144.14370011 62.49909059 141.71179521 59 139 C49.27834196 134.13917098 33.77004372 139.68665902 23.95751953 142.79711914 C6.54225219 148.67502708 -9.26099152 158.1552446 -24 169 C-24.54978516 169.39960937 -25.09957031 169.79921875 -25.66601562 170.2109375 C-32.99517174 175.544487 -40.04594174 181.18920404 -47 187 C-48.010625 187.82371094 -49.02125 188.64742187 -50.0625 189.49609375 C-57.75527558 195.84768325 -64.88141635 202.700051 -71.9375 209.75 C-72.82550293 210.63719727 -73.71350586 211.52439453 -74.62841797 212.43847656 C-79.06108899 216.90880478 -83.35687146 221.44278099 -87.46020508 226.21728516 C-89.7006497 228.81118505 -92.03882775 231.30444721 -94.375 233.8125 C-98.69969833 238.48774918 -102.75961671 243.32255409 -106.75390625 248.28515625 C-109.0883059 251.10673495 -111.51990598 253.80590712 -114 256.5 C-118.8936826 261.8296789 -123.46207844 267.36696488 -128 273 C-129.03294233 274.26506799 -130.06685658 275.5293428 -131.1015625 276.79296875 C-153.43208849 304.09023699 -174.06416534 332.66792307 -192.84375 362.51953125 C-205.99851547 383.33702642 -219.90858273 394.24535701 -244.3125 399.75 C-253.04067619 401.56091231 -261.60095779 402.18102326 -270.5 402.1875 C-271.38558594 402.19974609 -272.27117188 402.21199219 -273.18359375 402.22460938 C-280.30251242 402.24028981 -287.75212041 402.14297543 -293.5 397.5 C-296.45390411 394.54609589 -297.20533585 393.05231973 -297.4375 389 C-296.89832187 357.41314798 -270.30290824 318.31082997 -255.51904297 290.84228516 C-253.61115538 287.27243185 -251.72947845 283.6891121 -249.84765625 280.10546875 C-242.64035598 266.39396517 -235.39161612 252.72758748 -227.69433594 239.28271484 C-223.65335235 232.21035699 -219.77676176 225.05862482 -215.9375 217.875 C-210.30632471 207.35031404 -204.46971149 196.96509369 -198.50634766 186.62597656 C-196.40000486 182.95404413 -194.32516647 179.26467393 -192.24975586 175.57519531 C-184.96953813 162.63598941 -177.52941409 149.79559863 -170 137 C-169.25159957 135.72609069 -168.50322831 134.45216424 -167.75488281 133.17822266 C-157.80720171 116.25472389 -147.76857531 99.41854772 -137 83 C-136.59976624 82.38922607 -136.19953247 81.77845215 -135.78717041 81.14916992 C-106.22280643 36.06091296 -106.22280643 36.06091296 -89 17 C-88.28328125 16.19949219 -87.5665625 15.39898437 -86.828125 14.57421875 C-82.13633004 9.5915325 -77.04652874 6.1719495 -71 3 C-70.14535156 2.54625 -69.29070313 2.0925 -68.41015625 1.625 C-51.1215268 -6.90507268 -16.47681107 -12.47424743 0 0 Z " fill="#FEFEFE" transform="translate(4041,466)"/>
<path d="M0 0 C1.10690186 -0.01385742 2.21380371 -0.02771484 3.35424805 -0.04199219 C10.62356853 0.00025514 15.72336721 0.68362234 21.625 5.1875 C23.82343043 8.14692558 24.25 9.6537605 24.25 13.375 C21.98834341 20.72976375 18.21795072 27.24693699 14.1875 33.75 C13.58897217 34.72461182 12.99044434 35.69922363 12.3737793 36.70336914 C4.40763985 49.53047734 -4.18110826 61.94674585 -12.75 74.375 C-13.85172473 75.9764509 -14.95330909 77.5779984 -16.0546875 79.1796875 C-17.40514721 81.14239568 -18.75572075 83.10502495 -20.10668945 85.06738281 C-31.81890179 102.09416892 -43.21094853 119.33530502 -52.875 137.625 C-53.32415771 138.46949707 -53.77331543 139.31399414 -54.23608398 140.18408203 C-57.97194835 147.40048964 -61.84693357 155.06964586 -60.75 163.375 C-59.27370832 166.96027979 -57.87267757 168.78352222 -54.421875 170.6015625 C-44.77588484 174.43239859 -34.70893938 174.5350984 -24.44506836 174.45678711 C-23.48107117 174.45372055 -22.51707397 174.45065399 -21.52386475 174.44749451 C-19.45380229 174.4403995 -17.38374653 174.43104214 -15.31370354 174.41959953 C-12.03998745 174.40207689 -8.76632097 174.39187042 -5.49256897 174.38368225 C3.80700349 174.35932857 13.10650793 174.32340621 22.40600586 174.27905273 C28.11151635 174.2523458 33.81698938 174.2352587 39.52255058 174.22418404 C41.69516842 174.2179642 43.86777875 174.20794647 46.0403614 174.19410515 C49.06349674 174.17499234 52.08643176 174.16800849 55.10961914 174.16381836 C56.01087021 174.15505676 56.91212128 174.14629517 57.84068298 174.13726807 C64.02210105 174.14710105 64.02210105 174.14710105 66.25 176.375 C67.54242393 186.34512744 62.66656738 194.77479003 56.9375 202.625 C42.1399566 221.35390394 22.73107742 231.85229536 -0.75 235.375 C-2.58812184 235.49394912 -4.42893142 235.57617626 -6.27026367 235.62451172 C-7.32964645 235.65479462 -8.38902924 235.68507751 -9.48051453 235.71627808 C-11.18205437 235.76004074 -11.18205437 235.76004074 -12.91796875 235.8046875 C-15.36394653 235.87843557 -17.80990966 235.95267062 -20.25585938 236.02734375 C-24.07728226 236.13991771 -27.89868898 236.24898307 -31.72045898 236.34912109 C-57.68917689 237.0429741 -79.4854268 238.08553449 -100.75 254.375 C-101.32516357 254.81513428 -101.90032715 255.25526855 -102.49291992 255.70874023 C-107.12988419 259.44173386 -110.25669918 263.56151333 -113.4375 268.5625 C-113.94732422 269.34423584 -114.45714844 270.12597168 -114.98242188 270.93139648 C-117.61746409 274.98944232 -120.19868705 279.0807543 -122.76953125 283.1796875 C-123.2694458 283.97608643 -123.76936035 284.77248535 -124.28442383 285.59301758 C-125.20825761 287.07087463 -126.12681851 288.55205349 -127.0378418 290.0378418 C-130.3039257 295.29804375 -133.82608156 300.34778256 -137.4140625 305.390625 C-143.52380405 313.98333441 -149.35904475 322.73658718 -155.125 331.5625 C-156.13601034 333.10591323 -157.14707883 334.64928837 -158.15820312 336.19262695 C-165.79109475 347.8557277 -173.33442977 359.57238108 -180.75 371.375 C-181.62132568 372.75727783 -181.62132568 372.75727783 -182.51025391 374.16748047 C-192.7755146 390.45818231 -202.80508707 406.88763009 -212.75 423.375 C-213.37874023 424.41736816 -214.00748047 425.45973633 -214.65527344 426.53369141 C-225.43929785 444.42966811 -236.09930833 462.3994832 -246.75 480.375 C-247.35585937 481.39722656 -247.96171875 482.41945313 -248.5859375 483.47265625 C-261.27327734 504.88626504 -273.88605271 526.34372436 -286.29638672 547.91918945 C-289.84160819 554.07982306 -293.41432815 560.22309666 -297.01318359 566.35253906 C-303.2289231 576.94568297 -309.2729232 587.62271706 -315.21044922 598.37426758 C-318.68593594 604.66743586 -322.19772777 610.93641142 -325.76416016 617.1784668 C-332.59024234 629.13497358 -338.98458455 641.2856148 -345.28027344 653.52832031 C-347.3478677 657.53299625 -349.45403108 661.51674637 -351.5625 665.5 C-374.88926782 709.7410926 -396.64345059 754.717447 -414.75 801.375 C-414.99065186 801.9925415 -415.23130371 802.61008301 -415.47924805 803.24633789 C-420.26686504 815.54792087 -424.81873087 827.87168338 -428.4453125 840.56640625 C-428.66659317 841.33859497 -428.88787384 842.11078369 -429.11585999 842.90637207 C-430.1855845 846.66182408 -431.22707052 850.42222306 -432.22729492 854.19677734 C-434.22314185 861.53660755 -435.94662853 867.22498823 -441.75 872.375 C-449.82541128 875.86260411 -457.84615773 874.90659758 -465.82421875 871.76171875 C-474.37396996 867.70943347 -481.58239482 861.94872905 -488.453125 855.515625 C-490.49632101 853.61142192 -492.59567222 851.83766609 -494.75 850.0625 C-509.02731545 837.5446113 -518.64939443 821.08981864 -521.0234375 802.19921875 C-521.83583208 785.10768668 -511.945853 768.24226638 -504.75 753.375 C-504.29818359 752.43430664 -503.84636719 751.49361328 -503.38085938 750.52441406 C-496.93160924 737.14906587 -489.82589108 724.21424119 -482.43701172 711.33886719 C-480.73871213 708.35516863 -479.06982816 705.35690124 -477.41015625 702.3515625 C-469.21160158 687.51597012 -460.55528449 673.01399785 -451.69970703 658.56640625 C-448.95975713 654.08147949 -446.25823052 649.57409504 -443.5625 645.0625 C-434.3825327 629.72751445 -425.07145702 614.47379107 -415.64477539 599.28930664 C-411.64462696 592.83907486 -407.68952219 586.36240966 -403.75 579.875 C-397.67131444 569.86729527 -391.52602816 559.90251072 -385.35009766 549.95458984 C-383.75560897 547.38404247 -382.16434153 544.81153131 -380.57421875 542.23828125 C-374.88820128 533.03811 -369.17774588 523.85394346 -363.4375 514.6875 C-358.10433699 506.17102971 -352.81927737 497.62631382 -347.5625 489.0625 C-341.50591532 479.19918933 -335.37766078 469.38554863 -329.17236328 459.61523438 C-326.75579437 455.8091176 -324.34610296 451.99866142 -321.9375 448.1875 C-321.44846191 447.41390137 -320.95942383 446.64030273 -320.45556641 445.84326172 C-316.40619709 439.43034565 -312.38924298 432.99744378 -308.375 426.5625 C-301.77609244 415.98704656 -295.09511526 405.46566187 -288.39355469 394.95507812 C-273.53063802 371.62303663 -258.99865806 348.08694756 -244.75 324.375 C-244.38803528 323.77306824 -244.02607056 323.17113647 -243.65313721 322.55096436 C-235.35940362 308.74658268 -227.29974555 294.85657629 -219.875 280.5625 C-219.29790283 279.45382568 -218.72080566 278.34515137 -218.1262207 277.20288086 C-211.50228246 264.89528852 -211.50228246 264.89528852 -211.75 251.375 C-213.46957357 247.60831503 -215.30638961 245.61126513 -218.75 243.375 C-221.53031527 242.39824037 -221.53031527 242.39824037 -224.625 241.75 C-225.63304688 241.51023437 -226.64109375 241.27046875 -227.6796875 241.0234375 C-237.76257109 239.21575447 -248.07353914 239.29763168 -258.28125 239.19921875 C-259.40886749 239.18719421 -260.53648499 239.17516968 -261.69827271 239.16278076 C-266.41539961 239.11412709 -271.13224949 239.06666958 -275.84960938 239.04907227 C-279.32724274 239.03362351 -282.8038799 238.9934933 -286.28125 238.94921875 C-287.87507507 238.95208138 -287.87507507 238.95208138 -289.50109863 238.95500183 C-295.50407296 238.8555535 -299.24460736 238.50760047 -303.75 234.375 C-306.18101642 227.08195074 -305.19235555 219.69585511 -302.07421875 212.78125 C-299.75596534 208.56873053 -296.92331901 204.97360919 -293.75 201.375 C-293.17636719 200.70726562 -292.60273438 200.03953125 -292.01171875 199.3515625 C-278.38654443 184.58852566 -257.96655286 177.70480763 -239.8125 170.3125 C-238.9246431 169.94950806 -238.03678619 169.58651611 -237.12202454 169.21252441 C-232.65750636 167.38741022 -228.18863449 165.5756204 -223.70776367 163.79101562 C-208.23240652 157.55252608 -194.20703426 149.83734734 -181.0625 139.5 C-180.18021729 138.81655518 -179.29793457 138.13311035 -178.38891602 137.42895508 C-170.973409 131.64406188 -163.73606588 125.67322625 -156.75 119.375 C-155.44252808 118.19671631 -155.44252808 118.19671631 -154.10864258 116.99462891 C-147.26686178 110.79346935 -140.61379425 104.42514676 -134.08520508 97.89550781 C-132.55762584 96.37013287 -131.02216418 94.85299328 -129.48632812 93.3359375 C-123.86993266 87.75057992 -118.64063465 82.03417487 -113.71850586 75.81103516 C-111.73706156 73.35898862 -109.65356727 71.05133295 -107.5 68.75 C-101.71893246 62.39684765 -96.63847151 55.51558042 -91.47460938 48.66113281 C-88.58103244 44.82542295 -85.66575102 41.00636345 -82.75 37.1875 C-82.22245117 36.49325928 -81.69490234 35.79901855 -81.15136719 35.08374023 C-79.69422632 33.17281606 -78.22699556 31.27061065 -76.75 29.375 C-76.10985962 28.55189331 -76.10985962 28.55189331 -75.45678711 27.7121582 C-61.50181453 10.31713537 -37.9813771 3.03531364 -16.60595703 0.61816406 C-11.07524694 0.14726414 -5.54850476 0.04197818 0 0 Z " fill="#FEFEFE" transform="translate(3225.75,54.625)"/>
<path d="M0 0 C11.59468099 11.77069133 16.33993059 22.44430282 16.37768555 38.67333984 C16.2185856 50.70540194 13.34389477 60.79708618 8.1171875 71.625 C6.50275204 75.38407298 5.49052183 78.98984645 6.05859375 83.08984375 C8.69403556 86.70416395 10.72868176 88.2879895 15.05859375 89.08984375 C28.59359854 90.13648735 41.59311785 89.33474341 53.93359375 83.33984375 C57.06654564 81.84187258 59.5500737 80.66368375 63.05859375 80.83984375 C66.05859375 82.08984375 66.05859375 82.08984375 67.93359375 84.83984375 C72.95849957 100.13303536 68.91403658 115.31955658 62.04394531 129.17480469 C51.30287651 150.0501624 34.13810398 171.409304 12.31811523 181.33666992 C4.09165283 185.17281168 1.47621352 189.51758093 -1.87890625 197.77734375 C-2.88020575 200.03661482 -3.89075356 202.29180802 -4.91015625 204.54296875 C-5.41160156 205.65478516 -5.91304687 206.76660156 -6.4296875 207.91210938 C-12.89106485 221.49435866 -22.33320021 233.73695637 -31.24414062 245.78662109 C-33.00530982 248.17656214 -34.7481432 250.57908582 -36.48828125 252.984375 C-43.28927642 262.35300771 -50.30403476 271.38999014 -57.94140625 280.08984375 C-58.57433594 280.82203125 -59.20726563 281.55421875 -59.859375 282.30859375 C-61.5405369 284.24750816 -63.23864109 286.16987761 -64.94140625 288.08984375 C-65.58746826 288.81929199 -66.23353027 289.54874023 -66.89916992 290.30029297 C-78.98232152 303.84078501 -91.56780875 317.24710771 -106.31884766 327.91162109 C-107.95540363 329.10000796 -109.56401913 330.32001844 -111.171875 331.546875 C-121.16627516 339.05783608 -131.99778289 345.08505686 -142.94140625 351.08984375 C-144.17479736 351.77143555 -144.17479736 351.77143555 -145.43310547 352.46679688 C-192.40257752 378.30619045 -244.47975007 391.75737776 -297.1640625 376.60546875 C-324.40903823 368.25720548 -346.191025 354.93007292 -359.94140625 329.08984375 C-363.68749216 321.18242184 -366.38839171 313.07984908 -368.69140625 304.65234375 C-368.89016357 303.93868652 -369.0889209 303.2250293 -369.29370117 302.48974609 C-372.63835112 289.52116339 -373.32536173 276.23104298 -373.25390625 262.90234375 C-373.25208344 262.18784058 -373.25026062 261.4733374 -373.24838257 260.73718262 C-373.19678685 248.64798764 -372.36165378 236.95073904 -369.94140625 225.08984375 C-369.69994873 223.85645264 -369.69994873 223.85645264 -369.45361328 222.59814453 C-360.45595431 177.71356907 -338.3305708 135.67358761 -309.94140625 100.08984375 C-309.13832031 99.07277344 -308.33523438 98.05570313 -307.5078125 97.0078125 C-299.09402178 86.52431925 -289.85038123 76.89889005 -280.39193726 67.36514282 C-278.98296474 65.94425373 -277.57796778 64.51942587 -276.1730957 63.09448242 C-270.07413304 56.98788856 -263.70192121 51.44883675 -256.94140625 46.08984375 C-255.68700236 45.06469827 -254.43415824 44.03763814 -253.18359375 43.0078125 C-194.72870544 -4.59214097 -81.44830289 -60.49621528 0 0 Z M-196.59179688 75.97900391 C-199.40465092 79.35129518 -202.06551544 82.82601433 -204.66748047 86.36279297 C-205.9716337 88.13082286 -207.30004467 89.87846595 -208.6328125 91.625 C-246.53441515 141.74159331 -284.39430627 212.01395971 -276.48046875 276.8671875 C-273.2768636 291.20803172 -264.05426291 302.89544416 -252.40625 311.5546875 C-237.86470937 320.6114632 -220.48138928 320.96913081 -204.00390625 317.90234375 C-171.62174772 310.32881159 -148.73327264 289.31453955 -131.44628906 261.70166016 C-121.14940464 244.51510672 -112.12413795 225.34753778 -111.62890625 204.96484375 C-111.57283203 203.44503906 -111.57283203 203.44503906 -111.515625 201.89453125 C-111.73589814 198.99689407 -111.73589814 198.99689407 -113.63671875 196.75390625 C-118.37787006 193.33063429 -124.35518937 194.51194434 -129.88671875 195.40332031 C-138.92664114 197.109213 -147.59174205 199.78951801 -156.14526367 203.15869141 C-160.57358323 204.84706628 -164.21548516 205.35989638 -168.94140625 205.08984375 C-174.17948011 196.06871654 -170.45107755 181.7805969 -167.94140625 172.3203125 C-163.8546635 159.26693351 -157.82342947 148.44300953 -148.94140625 138.08984375 C-148.23951172 137.17138672 -148.23951172 137.17138672 -147.5234375 136.234375 C-139.03190602 125.35226575 -126.6092971 119.61021269 -114.37890625 114.02734375 C-91.53801577 103.6197412 -91.53801577 103.6197412 -76.56640625 84.21484375 C-72.02997296 71.10736173 -70.05026818 54.0857449 -75.94140625 41.08984375 C-79.8827879 33.886629 -85.28461286 29.87413226 -92.94140625 27.08984375 C-133.42578348 16.50617658 -171.91687773 47.73425179 -196.59179688 75.97900391 Z " fill="#FEFEFE" transform="translate(4795.94140625,484.91015625)"/>
<path d="M0 0 C11.59468099 11.77069133 16.33993059 22.44430282 16.37768555 38.67333984 C16.2185856 50.70540194 13.34389477 60.79708618 8.1171875 71.625 C6.50275204 75.38407298 5.49052183 78.98984645 6.05859375 83.08984375 C8.69403556 86.70416395 10.72868176 88.2879895 15.05859375 89.08984375 C28.59359854 90.13648735 41.59311785 89.33474341 53.93359375 83.33984375 C57.06654564 81.84187258 59.5500737 80.66368375 63.05859375 80.83984375 C66.05859375 82.08984375 66.05859375 82.08984375 67.93359375 84.83984375 C72.95849957 100.13303536 68.91403658 115.31955658 62.04394531 129.17480469 C51.30287651 150.0501624 34.13810398 171.409304 12.31811523 181.33666992 C4.09165283 185.17281168 1.47621352 189.51758093 -1.87890625 197.77734375 C-2.88020575 200.03661482 -3.89075356 202.29180802 -4.91015625 204.54296875 C-5.41160156 205.65478516 -5.91304687 206.76660156 -6.4296875 207.91210938 C-12.89106485 221.49435866 -22.33320021 233.73695637 -31.24414062 245.78662109 C-33.00530982 248.17656214 -34.7481432 250.57908582 -36.48828125 252.984375 C-43.28927642 262.35300771 -50.30403476 271.38999014 -57.94140625 280.08984375 C-58.57433594 280.82203125 -59.20726562 281.55421875 -59.859375 282.30859375 C-61.5405369 284.24750816 -63.23864109 286.16987761 -64.94140625 288.08984375 C-65.58746826 288.81929199 -66.23353027 289.54874023 -66.89916992 290.30029297 C-78.98232152 303.84078501 -91.56780875 317.24710771 -106.31884766 327.91162109 C-107.95540363 329.10000796 -109.56401913 330.32001844 -111.171875 331.546875 C-121.16627516 339.05783608 -131.99778289 345.08505686 -142.94140625 351.08984375 C-144.17479736 351.77143555 -144.17479736 351.77143555 -145.43310547 352.46679688 C-192.40257752 378.30619045 -244.47975007 391.75737776 -297.1640625 376.60546875 C-324.40903823 368.25720548 -346.191025 354.93007292 -359.94140625 329.08984375 C-363.68749216 321.18242184 -366.38839171 313.07984908 -368.69140625 304.65234375 C-368.89016357 303.93868652 -369.0889209 303.2250293 -369.29370117 302.48974609 C-372.63835112 289.52116339 -373.32536173 276.23104298 -373.25390625 262.90234375 C-373.25208344 262.18784058 -373.25026062 261.4733374 -373.24838257 260.73718262 C-373.19678685 248.64798764 -372.36165378 236.95073904 -369.94140625 225.08984375 C-369.69994873 223.85645264 -369.69994873 223.85645264 -369.45361328 222.59814453 C-360.45595431 177.71356907 -338.3305708 135.67358761 -309.94140625 100.08984375 C-309.13832031 99.07277344 -308.33523438 98.05570313 -307.5078125 97.0078125 C-299.09402178 86.52431925 -289.85038123 76.89889005 -280.39193726 67.36514282 C-278.98296474 65.94425373 -277.57796778 64.51942587 -276.1730957 63.09448242 C-270.07413304 56.98788856 -263.70192121 51.44883675 -256.94140625 46.08984375 C-255.68700236 45.06469827 -254.43415824 44.03763814 -253.18359375 43.0078125 C-194.72870544 -4.59214097 -81.44830289 -60.49621528 0 0 Z M-196.59179688 75.97900391 C-199.40465092 79.35129518 -202.06551544 82.82601433 -204.66748047 86.36279297 C-205.9716337 88.13082286 -207.30004467 89.87846595 -208.6328125 91.625 C-246.53441515 141.74159331 -284.39430627 212.01395971 -276.48046875 276.8671875 C-273.2768636 291.20803172 -264.05426291 302.89544416 -252.40625 311.5546875 C-237.86470937 320.6114632 -220.48138928 320.96913081 -204.00390625 317.90234375 C-171.62174772 310.32881159 -148.73327264 289.31453955 -131.44628906 261.70166016 C-121.14940464 244.51510672 -112.12413795 225.34753778 -111.62890625 204.96484375 C-111.57283203 203.44503906 -111.57283203 203.44503906 -111.515625 201.89453125 C-111.73589814 198.99689407 -111.73589814 198.99689407 -113.63671875 196.75390625 C-118.37787006 193.33063429 -124.35518937 194.51194434 -129.88671875 195.40332031 C-138.92664114 197.109213 -147.59174205 199.78951801 -156.14526367 203.15869141 C-160.57358323 204.84706628 -164.21548516 205.35989638 -168.94140625 205.08984375 C-174.17948011 196.06871654 -170.45107755 181.7805969 -167.94140625 172.3203125 C-163.8546635 159.26693351 -157.82342947 148.44300953 -148.94140625 138.08984375 C-148.23951172 137.17138672 -148.23951172 137.17138672 -147.5234375 136.234375 C-139.03190602 125.35226575 -126.6092971 119.61021269 -114.37890625 114.02734375 C-91.53801577 103.6197412 -91.53801577 103.6197412 -76.56640625 84.21484375 C-72.02997296 71.10736173 -70.05026818 54.0857449 -75.94140625 41.08984375 C-79.8827879 33.886629 -85.28461286 29.87413226 -92.94140625 27.08984375 C-133.42578348 16.50617658 -171.91687773 47.73425179 -196.59179688 75.97900391 Z " fill="#FEFEFE" transform="translate(1269.94140625,484.91015625)"/>
<path d="M0 0 C11.59468099 11.77069133 16.33993059 22.44430282 16.37768555 38.67333984 C16.2185856 50.70540194 13.34389477 60.79708618 8.1171875 71.625 C6.50275204 75.38407298 5.49052183 78.98984645 6.05859375 83.08984375 C8.69403556 86.70416395 10.72868176 88.2879895 15.05859375 89.08984375 C28.59359854 90.13648735 41.59311785 89.33474341 53.93359375 83.33984375 C57.06654564 81.84187258 59.5500737 80.66368375 63.05859375 80.83984375 C66.05859375 82.08984375 66.05859375 82.08984375 67.93359375 84.83984375 C72.95849957 100.13303536 68.91403658 115.31955658 62.04394531 129.17480469 C51.30287651 150.0501624 34.13810398 171.409304 12.31811523 181.33666992 C4.09165283 185.17281168 1.47621352 189.51758093 -1.87890625 197.77734375 C-2.88020575 200.03661482 -3.89075356 202.29180802 -4.91015625 204.54296875 C-5.41160156 205.65478516 -5.91304687 206.76660156 -6.4296875 207.91210938 C-12.89106485 221.49435866 -22.33320021 233.73695637 -31.24414062 245.78662109 C-33.00530982 248.17656214 -34.7481432 250.57908582 -36.48828125 252.984375 C-43.28927642 262.35300771 -50.30403476 271.38999014 -57.94140625 280.08984375 C-58.57433594 280.82203125 -59.20726562 281.55421875 -59.859375 282.30859375 C-61.5405369 284.24750816 -63.23864109 286.16987761 -64.94140625 288.08984375 C-65.58746826 288.81929199 -66.23353027 289.54874023 -66.89916992 290.30029297 C-78.98232152 303.84078501 -91.56780875 317.24710771 -106.31884766 327.91162109 C-107.95540363 329.10000796 -109.56401913 330.32001844 -111.171875 331.546875 C-121.16627516 339.05783608 -131.99778289 345.08505686 -142.94140625 351.08984375 C-144.17479736 351.77143555 -144.17479736 351.77143555 -145.43310547 352.46679688 C-192.40257752 378.30619045 -244.47975007 391.75737776 -297.1640625 376.60546875 C-324.40903823 368.25720548 -346.191025 354.93007292 -359.94140625 329.08984375 C-363.68749216 321.18242184 -366.38839171 313.07984908 -368.69140625 304.65234375 C-368.89016357 303.93868652 -369.0889209 303.2250293 -369.29370117 302.48974609 C-372.63835112 289.52116339 -373.32536173 276.23104298 -373.25390625 262.90234375 C-373.25208344 262.18784058 -373.25026062 261.4733374 -373.24838257 260.73718262 C-373.19678685 248.64798764 -372.36165378 236.95073904 -369.94140625 225.08984375 C-369.69994873 223.85645264 -369.69994873 223.85645264 -369.45361328 222.59814453 C-360.45595431 177.71356907 -338.3305708 135.67358761 -309.94140625 100.08984375 C-309.13832031 99.07277344 -308.33523438 98.05570313 -307.5078125 97.0078125 C-299.09402178 86.52431925 -289.85038123 76.89889005 -280.39193726 67.36514282 C-278.98296474 65.94425373 -277.57796778 64.51942587 -276.1730957 63.09448242 C-270.07413304 56.98788856 -263.70192121 51.44883675 -256.94140625 46.08984375 C-255.68700236 45.06469827 -254.43415824 44.03763814 -253.18359375 43.0078125 C-194.72870544 -4.59214097 -81.44830289 -60.49621528 0 0 Z M-196.59179688 75.97900391 C-199.40465092 79.35129518 -202.06551544 82.82601433 -204.66748047 86.36279297 C-205.9716337 88.13082286 -207.30004467 89.87846595 -208.6328125 91.625 C-246.53441515 141.74159331 -284.39430627 212.01395971 -276.48046875 276.8671875 C-273.2768636 291.20803172 -264.05426291 302.89544416 -252.40625 311.5546875 C-237.86470937 320.6114632 -220.48138928 320.96913081 -204.00390625 317.90234375 C-171.62174772 310.32881159 -148.73327264 289.31453955 -131.44628906 261.70166016 C-121.14940464 244.51510672 -112.12413795 225.34753778 -111.62890625 204.96484375 C-111.57283203 203.44503906 -111.57283203 203.44503906 -111.515625 201.89453125 C-111.73589814 198.99689407 -111.73589814 198.99689407 -113.63671875 196.75390625 C-118.37787006 193.33063429 -124.35518937 194.51194434 -129.88671875 195.40332031 C-138.92664114 197.109213 -147.59174205 199.78951801 -156.14526367 203.15869141 C-160.57358323 204.84706628 -164.21548516 205.35989638 -168.94140625 205.08984375 C-174.17948011 196.06871654 -170.45107755 181.7805969 -167.94140625 172.3203125 C-163.8546635 159.26693351 -157.82342947 148.44300953 -148.94140625 138.08984375 C-148.23951172 137.17138672 -148.23951172 137.17138672 -147.5234375 136.234375 C-139.03190602 125.35226575 -126.6092971 119.61021269 -114.37890625 114.02734375 C-91.53801577 103.6197412 -91.53801577 103.6197412 -76.56640625 84.21484375 C-72.02997296 71.10736173 -70.05026818 54.0857449 -75.94140625 41.08984375 C-79.8827879 33.886629 -85.28461286 29.87413226 -92.94140625 27.08984375 C-133.42578348 16.50617658 -171.91687773 47.73425179 -196.59179688 75.97900391 Z " fill="#FEFEFE" transform="translate(861.94140625,484.91015625)"/>
<path d="M0 0 C2.32556107 -0.00969388 4.65023104 -0.04082863 6.97558594 -0.07226562 C31.75799585 -0.2485321 55.00272696 6.54840734 73.31542969 23.97070312 C74.44271484 25.09412109 74.44271484 25.09412109 75.59277344 26.24023438 C76.31335937 26.93761719 77.03394531 27.635 77.77636719 28.35351562 C88.62970534 39.57615451 92.08649054 53.27196975 91.84277344 68.44335938 C91.2897222 76.84282512 90.01153152 84.43278658 83.59277344 90.24023438 C78.86262343 93.052756 73.63690786 93.0053669 68.41699219 91.69335938 C62.69371938 89.65414285 57.74766468 86.5514109 52.65527344 83.30273438 C18.77132177 61.70710137 -28.3813638 59.83096656 -66.81787109 68.12182617 C-90.76978753 73.66136632 -113.44828395 83.83804283 -133.40722656 98.24023438 C-134.37660156 98.93632813 -135.34597656 99.63242187 -136.34472656 100.34960938 C-154.81531954 113.91395109 -172.72030648 129.63294216 -187.40722656 147.24023438 C-187.85936523 147.7785791 -188.31150391 148.31692383 -188.77734375 148.87158203 C-215.44054677 180.72260954 -236.75420684 216.85508589 -239.40722656 259.24023438 C-239.4884375 260.39845703 -239.4884375 260.39845703 -239.57128906 261.58007812 C-239.87457287 269.42410023 -238.16876997 276.44849852 -233.34472656 282.74023438 C-229.22365301 286.99925181 -225.2529201 288.13136043 -219.40722656 288.24023438 C-194.68133579 286.7837778 -172.57119083 269.60204438 -154.40722656 254.24023438 C-153.29538288 253.31559227 -152.18339676 252.39112142 -151.07128906 251.46679688 C-140.01832213 242.21064796 -129.69192041 232.28370283 -120.40722656 221.24023438 C-119.63636719 220.35851562 -118.86550781 219.47679687 -118.07128906 218.56835938 C-98.28653646 195.82649485 -81.52525409 170.46031077 -66.35253906 144.46020508 C-56.79563982 128.15429123 -46.51001935 120.3638638 -27.97363281 115.30273438 C-8.54190738 110.6301345 16.69099136 108.6198513 34.59277344 119.24023438 C37.21632752 121.27348879 38.31763416 122.41341276 39.35839844 125.54101562 C39.66622416 129.08614181 38.71517123 130.48409113 36.84277344 133.49023438 C36.18921875 134.54984375 35.53566406 135.60945312 34.86230469 136.70117188 C34.10804602 137.88230035 33.35143774 139.0619309 32.59277344 140.24023438 C32.20009277 140.85415039 31.80741211 141.46806641 31.40283203 142.10058594 C29.1806559 145.56862059 26.93989122 149.02422197 24.69042969 152.47460938 C6.27681315 180.74818968 -10.58390298 209.62836145 -26.05175781 239.62646484 C-27.67329087 242.75328994 -29.32671544 245.86229459 -30.98364258 248.97045898 C-47.68741001 280.38688532 -63.58285338 312.25781955 -74.40722656 346.24023438 C-74.65408203 347.00577637 -74.9009375 347.77131836 -75.15527344 348.56005859 C-78.03274428 357.56909298 -80.27499042 366.58638615 -81.88867188 375.91113281 C-82.76688735 380.5862799 -83.63119033 384.03689697 -87.40722656 387.24023438 C-90.13800056 387.74041027 -92.13131538 387.91030462 -94.84472656 387.80273438 C-95.55121338 387.7861377 -96.2577002 387.76954102 -96.9855957 387.75244141 C-108.45202212 387.25485393 -119.35664891 383.61559453 -127.37207031 375.16992188 C-139.75984333 360.13697956 -140.37008555 341.22036766 -139.10253906 322.56054688 C-139.02471191 321.40026978 -139.02471191 321.40026978 -138.9453125 320.21655273 C-138.8387937 318.72162194 -138.72017667 317.22749045 -138.58789062 315.73461914 C-138.29352206 311.90554233 -138.20650858 310.54131135 -140.40722656 307.24023438 C-147.5298618 306.31894776 -151.91015973 310.2001366 -157.40722656 314.24023438 C-164.77636798 319.98894839 -171.6310069 326.3262855 -178.46801758 332.68823242 C-189.54869701 342.97116914 -201.15624245 352.38719533 -213.40722656 361.24023438 C-214.18904297 361.80532715 -214.97085938 362.37041992 -215.77636719 362.95263672 C-246.71329035 385.19699708 -279.49474874 405.20437756 -318.71972656 405.55273438 C-319.79673828 405.58173828 -320.87375 405.61074219 -321.98339844 405.640625 C-331.77502589 405.71772443 -339.89975701 403.24674718 -347.59472656 397.05664062 C-359.27615644 385.35003525 -361.59902278 367.19089069 -361.7878418 351.48486328 C-361.78598877 350.20788574 -361.78413574 348.9309082 -361.78222656 347.61523438 C-361.7813504 346.94482117 -361.78047424 346.27440796 -361.77957153 345.5836792 C-361.46047519 270.74288876 -316.98214554 199.58088225 -271.40722656 143.24023438 C-270.71113281 142.36882812 -270.01503906 141.49742187 -269.29785156 140.59960938 C-264.46834268 134.60553807 -259.42424341 128.88913384 -254.18066406 123.25976562 C-252.18547149 121.11371528 -250.2708491 118.91379858 -248.36816406 116.68554688 C-243.61217254 111.23082923 -238.49036734 106.1373429 -233.375 101.02270508 C-231.66928059 99.31480382 -229.97173629 97.59905393 -228.27441406 95.8828125 C-221.62774642 89.20210395 -214.81153042 83.08276352 -207.40722656 77.24023438 C-206.22108598 76.2526514 -205.03825369 75.26106658 -203.86035156 74.26367188 C-187.82088636 60.90280973 -169.88325927 49.89267871 -151.40722656 40.24023438 C-150.75802246 39.89976074 -150.10881836 39.55928711 -149.43994141 39.20849609 C-145.51994606 37.16755603 -141.5679917 35.2033942 -137.58447266 33.28955078 C-136.08637423 32.5675473 -134.59209321 31.83758646 -133.10107422 31.10107422 C-92.05613459 10.90514521 -45.69761643 0.11457823 0 0 Z " fill="#FEFEFE" transform="translate(2724.4072265625,471.759765625)"/>
<path d="M0 0 C2.95450588 4.43175882 2.69822561 7.78532401 2 13 C-1.1468469 26.24255639 -7.13157001 38.78875434 -13 51 C-13.77150391 52.60875 -13.77150391 52.60875 -14.55859375 54.25 C-25.52423339 75.62212485 -43.70468936 91.53050564 -65.60327148 100.86938477 C-70.18238763 102.87373259 -73.51107891 104.44236528 -76 109 C-76.48166857 111.8265581 -76.77391026 114.40926576 -76.9375 117.25 C-80.76123959 160.11841766 -112.67863162 199.74027412 -139 232 C-139.71671875 232.89074219 -140.4334375 233.78148437 -141.171875 234.69921875 C-145.59775653 240.17052402 -150.15642375 245.47673985 -154.89453125 250.6796875 C-156.72917685 252.70154184 -158.52768786 254.74678522 -160.3125 256.8125 C-170.5057422 268.46519442 -181.31564293 279.47431875 -192.27392578 290.40429688 C-194.76321315 292.88818449 -197.24705702 295.37742683 -199.73046875 297.8671875 C-201.33561669 299.47167518 -202.9410745 301.07585292 -204.546875 302.6796875 C-205.2772699 303.41210663 -206.00766479 304.14452576 -206.76019287 304.8991394 C-210.78238864 308.90325984 -214.89289133 312.74330091 -219.19927979 316.44082642 C-222.20798385 319.04594623 -225.09718956 321.77820474 -228 324.5 C-232.92526196 329.0921054 -237.88534731 333.61866412 -243 338 C-243.98871094 338.8559375 -244.97742187 339.711875 -245.99609375 340.59375 C-259.96653262 352.66476175 -274.20288796 364.34459509 -288.953125 375.45166016 C-290.90539904 376.92843997 -292.84478356 378.42054948 -294.78125 379.91796875 C-311.62085166 392.86141744 -329.42775449 404.69044042 -348 415 C-348.78342773 415.44150391 -349.56685547 415.88300781 -350.37402344 416.33789062 C-375.35879359 430.33249357 -406.92001729 444.71072221 -436.3359375 438.26953125 C-445.49894339 434.89875581 -450.85027455 428.62675318 -455 420 C-483.63541412 344.18433214 -425.85695614 219.28230072 -394.06567383 146.86376953 C-387.43979036 132.34389093 -380.30543499 118.05547016 -373.24617004 103.74302673 C-366.22254909 90.95632235 -366.22254909 90.95632235 -361.47241211 77.34301758 C-360.07076613 70.39128816 -350.51044769 64.72526604 -345.04296875 60.88671875 C-331.42309169 52.44204529 -317.41758521 49.77553856 -301.6875 49.625 C-300.67316895 49.61098145 -299.65883789 49.59696289 -298.61376953 49.58251953 C-292.46194168 49.62187024 -286.52476813 50.05027698 -281 53 C-279 56 -279 56 -279.046875 58.5234375 C-280.43242595 63.57729137 -282.87053568 67.97231409 -285.25 72.625 C-311.43722567 125.85606111 -329.41294441 187.89529315 -341 246 C-341.20737793 247.02174316 -341.41475586 248.04348633 -341.62841797 249.09619141 C-344.23558582 262.35874093 -345.37842646 275.38706224 -345.4375 288.875 C-345.44376404 289.54541321 -345.45002808 290.21582642 -345.45648193 290.90655518 C-345.52915019 303.13703677 -344.62562879 314.3142706 -336.4375 323.8125 C-332.25075175 327.27111812 -326.07622046 326.34236506 -321 326 C-300.3736674 322.90759631 -282.41583402 308.05345969 -268 294 C-267.11513916 293.14583496 -267.11513916 293.14583496 -266.21240234 292.27441406 C-258.59288989 284.90148118 -251.54546791 277.35736214 -245 269 C-244.08291952 267.8706137 -243.16351389 266.74311276 -242.2421875 265.6171875 C-207.83218862 223.4245168 -172.56138429 172.53083714 -167 117 C-167.8765625 116.7421875 -168.753125 116.484375 -169.65625 116.21875 C-178.12785516 113.13096868 -184.70576325 107.44666667 -188.91796875 99.5078125 C-194.40715537 86.78558214 -192.1228443 73.10586375 -187.74609375 60.34375 C-182.81123404 48.18812825 -175.38545193 37.99362079 -167 28 C-166.35160156 27.20464844 -165.70320313 26.40929687 -165.03515625 25.58984375 C-160.13253999 19.7746613 -154.82176445 15.41088222 -148 12 C-142.04814891 11.65254058 -137.42897452 12.49403581 -131.8125 14.375 C-118.82406874 18.70028592 -105.94001352 19.37853815 -92.375 19.3125 C-91.18112671 19.30926727 -91.18112671 19.30926727 -89.96313477 19.30596924 C-78.09947328 19.2544166 -66.55764716 18.92922523 -55 16 C-53.78884521 15.69400879 -53.78884521 15.69400879 -52.55322266 15.38183594 C-39.62377601 11.99994755 -27.62767299 7.11123936 -15.58984375 1.375 C-5.86461662 -3.05979998 -5.86461662 -3.05979998 0 0 Z " fill="#FEFEFE" transform="translate(3580,441)"/>
<path d="M0 0 C3.01124621 3.10838319 3.91051868 4.67791523 4 9.0625 C2.06209557 19.19923089 -7.61613015 28.98669768 -13.55859375 37.1640625 C-54.16931771 93.12061867 -88.60990363 153.03440008 -119.5 214.8125 C-120.37398437 216.55829346 -120.37398437 216.55829346 -121.265625 218.33935547 C-123.73054163 223.27557821 -126.17885318 228.21588303 -128.5390625 233.203125 C-128.89943604 233.95489014 -129.25980957 234.70665527 -129.63110352 235.48120117 C-130.26384554 236.80621365 -130.88542137 238.13665909 -131.49194336 239.47387695 C-133.35192537 243.34860998 -135.14337436 245.22250679 -139.0625 247 C-146.14213087 247.99114832 -153.0988883 245.4159157 -159.11328125 241.75 C-167.43731974 235.25318947 -171.55772587 224.64434298 -175.0625 215 C-175.54589844 213.68515625 -175.54589844 213.68515625 -176.0390625 212.34375 C-181.5657363 194.36914737 -178.36585146 175.28430939 -170.75 158.5625 C-168.27613758 153.04003944 -167.19897454 149.80981468 -169.0625 144 C-170.14473969 142.20306467 -170.14473969 142.20306467 -172.0625 141 C-196.865275 137.47037433 -220.63782853 152.47508321 -239.64453125 166.65625 C-247.27886847 172.45880764 -254.36695167 178.76510793 -261.3203125 185.359375 C-263.16800391 187.09935346 -265.03504361 188.81659872 -266.90625 190.53125 C-275.80176271 198.71503489 -284.20445633 207.23772243 -292.36669922 216.15136719 C-293.94537151 217.87231545 -295.53462595 219.58258244 -297.12890625 221.2890625 C-303.05111888 227.64801051 -308.63391147 234.21650756 -314.0625 241 C-314.98490375 242.13083957 -315.90812196 243.26101515 -316.83203125 244.390625 C-344.52626964 278.39762216 -368.19152346 316.48580005 -389.8046875 354.56640625 C-390.72024414 356.16959717 -390.72024414 356.16959717 -391.65429688 357.80517578 C-392.79949997 359.81680718 -393.9345304 361.83428314 -395.05664062 363.85888672 C-403.68882284 379.00757214 -414.69861735 388.20838499 -431.0625 394 C-447.33834178 398.43417865 -471.16427277 402.2638452 -487.0625 395 C-489.79044397 393.12891022 -490.44134922 392.06860684 -492.0625 389 C-492.65769412 382.18163699 -491.07331753 376.67175181 -488.875 370.25 C-488.51752686 369.20054199 -488.16005371 368.15108398 -487.79174805 367.06982422 C-483.16814586 353.94494719 -477.19089369 341.47143003 -471.0625 329 C-470.66985962 328.19965332 -470.27721924 327.39930664 -469.87268066 326.57470703 C-460.13933379 306.75112075 -450.31927021 286.99492649 -439.55517578 267.70751953 C-436.84697211 262.79519066 -434.22846665 257.83456436 -431.59393311 252.88247681 C-425.67988194 241.77393289 -419.60103563 230.7705858 -413.37109375 219.8359375 C-410.38133877 214.58208751 -407.45038644 209.29705179 -404.52734375 204.00585938 C-398.03298672 192.25067308 -391.38939631 180.59828392 -384.5859375 169.01953125 C-382.17039995 164.90584251 -379.78209148 160.77793689 -377.4140625 156.63671875 C-300.25813688 21.72296959 -300.25813688 21.72296959 -256.76171875 9.76953125 C-240.48418865 5.64435445 -218.30117807 2.21353678 -203.0625 11 C-200.407309 13.99779629 -200.0625 15.54067785 -200.0625 19.5625 C-203.08599613 36.19172871 -214.88310593 51.11085211 -224.56054688 64.51196289 C-228.38799142 69.88073982 -231.82404328 75.41866491 -235.125 81.125 C-235.57810547 81.90673584 -236.03121094 82.68847168 -236.49804688 83.49389648 C-242.11219528 93.11946591 -242.11219528 93.11946591 -243.0625 104 C-242.10132095 106.12870693 -242.10132095 106.12870693 -240.0625 107 C-228.92903635 105.86804617 -219.87902628 97.8825018 -211.10986328 91.48632812 C-187.03123124 74.00591889 -161.80730792 58.40673662 -136 43.625 C-134.66908325 42.85905518 -134.66908325 42.85905518 -133.3112793 42.07763672 C-128.87675906 39.54134788 -124.42521643 37.20020784 -119.8125 35 C-113.46406137 31.60479073 -110.05730747 25.80088901 -106.0625 20 C-93.65309719 3.66001711 -74.69688281 -4.46873948 -54.87011719 -7.31469727 C-37.30808575 -9.46324366 -15.26608659 -9.9696892 0 0 Z " fill="#FEFEFE" transform="translate(2469.0625,471)"/>
<path d="M0 0 C14.20035228 15.41087411 20.30167829 34.64675989 19.78125 55.35546875 C16.68578928 110.46572486 -13.42227761 152.44931178 -52.4375 189.25 C-55.99350582 192.40525766 -59.67754958 195.34236995 -63.4375 198.25 C-64.71398412 199.26637165 -65.98999186 200.28334176 -67.265625 201.30078125 C-105.58921117 231.57447947 -151.10914621 249.84143619 -199.375 255.75 C-213.576689 257.52003127 -230.730292 259.83906751 -241.50390625 270.24609375 C-252.55042648 285.33469907 -252.22217011 308.5177584 -249.6171875 326.25439453 C-247.523262 338.3473712 -243.44208672 347.93930356 -235.4375 357.25 C-234.2928125 358.7659375 -234.2928125 358.7659375 -233.125 360.3125 C-226.45651553 367.60130861 -219.02701207 372.17039975 -210.21313477 376.37695312 C-204.26009588 379.24204444 -199.12533049 382.56216951 -194.4375 387.25 C-193.79999015 393.62509853 -195.03473117 398.91984671 -198.7734375 404.1015625 C-207.68622187 413.9708408 -222.46080544 418.50714808 -235.4375 419.25 C-263.53555574 420.54372343 -292.13070052 414.5805658 -313.6015625 395.49609375 C-320.98526556 388.63044363 -326.4825074 380.99296044 -331.4375 372.25 C-332.06398438 371.16203125 -332.69046875 370.0740625 -333.3359375 368.953125 C-355.30860365 328.07820893 -349.74435266 276.55401734 -337.39453125 233.62451172 C-324.18427425 189.82787458 -303.09473936 148.36868166 -276.4375 111.25 C-275.88562012 110.47640137 -275.33374023 109.70280273 -274.76513672 108.90576172 C-267.79271183 99.16207218 -260.69501026 89.94290626 -252.4375 81.25 C-251.32661215 79.96410927 -250.2220434 78.67272207 -249.125 77.375 C-240.71849106 67.74212976 -231.47608963 59.15186172 -221.4375 51.25 C-220.30663721 50.32008257 -219.17783909 49.38765038 -218.05078125 48.453125 C-208.62177368 40.68341917 -198.74518115 33.80238788 -188.4375 27.25 C-187.48689697 26.64526855 -187.48689697 26.64526855 -186.51708984 26.02832031 C-143.71259462 -0.94437531 -45.07006926 -43.01832104 0 0 Z M-166.4375 80.25 C-167.01322754 80.80381348 -167.58895508 81.35762695 -168.18212891 81.92822266 C-175.81808042 89.31645474 -182.86660434 96.88601019 -189.4375 105.25 C-190.3656338 106.36826183 -191.29680038 107.48401122 -192.23046875 108.59765625 C-211.13876477 131.32659128 -229.06731835 160.37927087 -229.75 190.8125 C-229.78738281 191.90691406 -229.82476563 193.00132812 -229.86328125 194.12890625 C-229.33016481 198.03679648 -228.29341281 199.5551171 -225.4375 202.25 C-211.25663105 208.61025423 -192.52426212 202.48723182 -178.71850586 197.27978516 C-153.27867244 187.20028669 -130.25546782 170.98117604 -110.4375 152.25 C-109.55578125 151.43273437 -108.6740625 150.61546875 -107.765625 149.7734375 C-87.61280803 130.47455345 -74.65288508 105.34887447 -73.4375 77.25 C-73.35503932 67.63302341 -75.13565114 60.55654282 -80.1875 52.4375 C-85.82975723 46.95197213 -92.28540112 45.54657849 -99.9375 45 C-126.11802687 45.44966554 -148.47480153 62.94187906 -166.4375 80.25 Z " fill="#FEFEFE" transform="translate(3828.4375,473.75)"/>
<path d="M0 0 C14.20035228 15.41087411 20.30167829 34.64675989 19.78125 55.35546875 C16.68578928 110.46572486 -13.42227761 152.44931178 -52.4375 189.25 C-55.99350582 192.40525766 -59.67754958 195.34236995 -63.4375 198.25 C-64.71398412 199.26637165 -65.98999186 200.28334176 -67.265625 201.30078125 C-105.58921117 231.57447947 -151.10914621 249.84143619 -199.375 255.75 C-213.576689 257.52003127 -230.730292 259.83906751 -241.50390625 270.24609375 C-252.55042648 285.33469907 -252.22217011 308.5177584 -249.6171875 326.25439453 C-247.523262 338.3473712 -243.44208672 347.93930356 -235.4375 357.25 C-234.2928125 358.7659375 -234.2928125 358.7659375 -233.125 360.3125 C-226.45651553 367.60130861 -219.02701207 372.17039975 -210.21313477 376.37695312 C-204.26009588 379.24204444 -199.12533049 382.56216951 -194.4375 387.25 C-193.79999015 393.62509853 -195.03473117 398.91984671 -198.7734375 404.1015625 C-207.68622187 413.9708408 -222.46080544 418.50714808 -235.4375 419.25 C-263.53555574 420.54372343 -292.13070052 414.5805658 -313.6015625 395.49609375 C-320.98526556 388.63044363 -326.4825074 380.99296044 -331.4375 372.25 C-332.06398438 371.16203125 -332.69046875 370.0740625 -333.3359375 368.953125 C-355.30860365 328.07820893 -349.74435266 276.55401734 -337.39453125 233.62451172 C-324.18427425 189.82787458 -303.09473936 148.36868166 -276.4375 111.25 C-275.88562012 110.47640137 -275.33374023 109.70280273 -274.76513672 108.90576172 C-267.79271183 99.16207218 -260.69501026 89.94290626 -252.4375 81.25 C-251.32661215 79.96410927 -250.2220434 78.67272207 -249.125 77.375 C-240.71849106 67.74212976 -231.47608963 59.15186172 -221.4375 51.25 C-220.30663721 50.32008257 -219.17783909 49.38765038 -218.05078125 48.453125 C-208.62177368 40.68341917 -198.74518115 33.80238788 -188.4375 27.25 C-187.48689697 26.64526855 -187.48689697 26.64526855 -186.51708984 26.02832031 C-143.71259462 -0.94437531 -45.07006926 -43.01832104 0 0 Z M-166.4375 80.25 C-167.01322754 80.80381348 -167.58895508 81.35762695 -168.18212891 81.92822266 C-175.81808042 89.31645474 -182.86660434 96.88601019 -189.4375 105.25 C-190.3656338 106.36826183 -191.29680038 107.48401122 -192.23046875 108.59765625 C-211.13876477 131.32659128 -229.06731835 160.37927087 -229.75 190.8125 C-229.78738281 191.90691406 -229.82476563 193.00132812 -229.86328125 194.12890625 C-229.33016481 198.03679648 -228.29341281 199.5551171 -225.4375 202.25 C-211.25663105 208.61025423 -192.52426212 202.48723182 -178.71850586 197.27978516 C-153.27867244 187.20028669 -130.25546782 170.98117604 -110.4375 152.25 C-109.55578125 151.43273437 -108.6740625 150.61546875 -107.765625 149.7734375 C-87.61280803 130.47455345 -74.65288508 105.34887447 -73.4375 77.25 C-73.35503932 67.63302341 -75.13565114 60.55654282 -80.1875 52.4375 C-85.82975723 46.95197213 -92.28540112 45.54657849 -99.9375 45 C-126.11802687 45.44966554 -148.47480153 62.94187906 -166.4375 80.25 Z " fill="#FEFEFE" transform="translate(2033.4375,473.75)"/>
<path d="M0 0 C2.14100627 2.3356432 2.9002376 3.7729225 3.15625 6.921875 C2.97089454 11.0305876 2.42925123 12.5911893 -0.625 15.5 C-1.44484375 16.08974609 -1.44484375 16.08974609 -2.28125 16.69140625 C-5.6842113 19.28229724 -8.24693176 22.75148163 -11 26 C-11.91939992 27.05831184 -12.84006746 28.11552323 -13.76171875 29.171875 C-19.50805706 35.77904246 -25.03126352 42.48960939 -30.31640625 49.47265625 C-32.27770298 52.06370671 -34.26935704 54.62855381 -36.27734375 57.18359375 C-59.95766077 87.31886711 -82.60047711 119.24395019 -99 154 C-99.34401855 154.72622559 -99.68803711 155.45245117 -100.04248047 156.20068359 C-101.43933515 159.15311207 -102.83414501 162.10634967 -104.2121582 165.06762695 C-105.13416216 167.04861415 -106.06448958 169.02535713 -107 171 C-107.34087646 171.72324463 -107.68175293 172.44648926 -108.03295898 173.19165039 C-108.37657471 173.90313232 -108.72019043 174.61461426 -109.07421875 175.34765625 C-109.53574341 176.31070679 -109.53574341 176.31070679 -110.0065918 177.29321289 C-112.14521086 180.96760116 -115.0756811 182.6918937 -119 184 C-128.2303284 184.84021195 -135.25134387 184.24502897 -143 179 C-143.61101562 178.58878906 -144.22203125 178.17757812 -144.8515625 177.75390625 C-153.68985489 170.95366758 -161.5696653 159.90145326 -164 149 C-165.4649978 135.56083171 -163.84835071 122.86872982 -160 110 C-159.24904919 107.45861111 -158.49919404 104.91690833 -157.75 102.375 C-157.24726563 100.77785156 -157.24726563 100.77785156 -156.734375 99.1484375 C-155.6620371 94.55107395 -155.33401763 90.57732665 -157.1875 86.1875 C-159.38992238 83.52940402 -160.70759632 83.01098265 -164 82 C-191.21138253 79.75425889 -220.65761522 89.86008183 -242.1875 106.4375 C-252.02679353 115.13268963 -260.15099101 127.48093249 -261.13891602 140.88476562 C-261.97689036 158.75606129 -257.48540022 172.83596897 -245.375 186.4375 C-236.609363 195.78856763 -227.39042875 204.35764943 -217.0625 211.9375 C-193.30358665 229.47271116 -172.05709738 253.1245785 -167.46484375 283.2578125 C-164.08955871 310.43027522 -174.74221776 337.3355051 -191.21386719 358.56445312 C-201.42501488 371.4044448 -212.92868007 382.78492323 -226.08837891 392.57568359 C-227.39307042 393.54778708 -228.69201175 394.52764407 -229.98583984 395.51416016 C-242.66358638 405.1766914 -256.09365839 413.23542227 -270 421 C-271.18190918 421.66539795 -271.18190918 421.66539795 -272.38769531 422.34423828 C-312.99104538 445.08029761 -359.69671617 458.37305422 -406 462 C-407.27875 462.11085938 -408.5575 462.22171875 -409.875 462.3359375 C-436.12701023 464.32635631 -466.48924611 465.88446012 -489.3125 450.8125 C-493.71740895 446.20271157 -496.44122895 440.96148654 -497.625 434.6875 C-496.75836596 430.96097363 -494.89353395 429.4112783 -492 427 C-489.12608279 425.56304139 -486.45054622 425.64819267 -483.24609375 425.421875 C-481.83244268 425.31579783 -480.41887118 425.20865635 -479.00537109 425.10058594 C-478.26051453 425.04414917 -477.51565796 424.9877124 -476.74822998 424.92956543 C-414.07220816 420.05904967 -346.23207444 394.39044909 -300.0234375 350.71484375 C-298 349 -298 349 -295 348 C-294.31153045 346.67779279 -293.64855065 345.34223853 -293 344 C-291.67809927 342.53277403 -290.31925677 341.0985003 -288.9375 339.6875 C-276.52704195 326.09604675 -269.56226259 309.94519422 -269.79296875 291.42578125 C-271.07447656 270.22045396 -284.84938165 253.63601548 -300 240 C-304.18602871 236.47432396 -308.58357742 233.22877932 -313 230 C-320.70437075 224.33925437 -328.04353688 218.56565058 -335 212 C-335.83402344 211.24203125 -336.66804688 210.4840625 -337.52734375 209.703125 C-349.59795761 198.32066632 -359.5052713 182.66496866 -360.23828125 165.69921875 C-360.83579825 139.07770226 -351.11842922 118.12675885 -332.80078125 98.87109375 C-286.37254407 50.95791125 -212.70940623 32.16926649 -148 31 C-141.72961916 30.9890716 -135.45923165 31.01901574 -129.18969727 31.12451172 C-128.05201904 31.13627441 -126.91434082 31.14803711 -125.7421875 31.16015625 C-124.22407471 31.18541382 -124.22407471 31.18541382 -122.67529297 31.21118164 C-119.87214074 30.98990708 -118.33504634 30.5368108 -116 29 C-114.29166693 26.81951458 -112.72866744 24.66648832 -111.1875 22.375 C-110.29278812 21.09725787 -109.39565907 19.82120484 -108.49609375 18.546875 C-108.06409668 17.93263672 -107.63209961 17.31839844 -107.18701172 16.68554688 C-97.62008442 3.10058883 -82.79514906 -3.45024272 -66.75976562 -6.4140625 C-46.8887972 -9.57726493 -17.51922944 -11.45488079 0 0 Z " fill="#FEFEFE" transform="translate(5242,447)"/>
<path d="M0 0 C0.69526794 -0.00962769 1.39053589 -0.01925537 2.10687256 -0.0291748 C20.20845502 -0.24430669 20.20845502 -0.24430669 26.9375 5.5 C28.79918441 9.14242602 28.82493161 12.32837625 28.375 16.3125 C27.44508997 18.8798603 26.52975787 21.0038782 25.25 23.375 C24.90090576 24.04490967 24.55181152 24.71481934 24.19213867 25.4050293 C15.54291926 41.65037683 5.43277826 57.06843242 -5.10644531 72.13525391 C-7.03286459 74.89728078 -8.93306471 77.67675863 -10.83300781 80.45703125 C-16.50784232 88.75448214 -22.29763979 96.96914138 -28.10888672 105.17138672 C-30.11791964 108.00862001 -32.12262292 110.84889649 -34.12695312 113.68945312 C-35.62709265 115.81546572 -37.12799966 117.94093515 -38.62890625 120.06640625 C-40.61857532 122.88483432 -42.6053144 125.70529459 -44.58984375 128.52734375 C-49.69731989 135.78484973 -54.84535849 143.00836324 -60.0625 150.1875 C-64.56592371 156.38787574 -68.94608331 162.65963637 -73.25 169 C-77.51105423 175.27694834 -81.87391026 181.45116566 -86.39331055 187.54418945 C-92.05897262 195.20613844 -97.46816153 203.04852425 -102.91699219 210.86523438 C-109.54853118 220.36702782 -116.25184201 229.81330831 -123.0625 239.1875 C-127.56584567 245.38793421 -131.94608142 251.65963359 -136.25 258 C-140.51255274 264.2791558 -144.87781257 270.45483553 -149.39770508 276.55078125 C-155.02462625 284.1624269 -160.40502238 291.94683244 -165.81347656 299.71435547 C-167.61873004 302.30350743 -169.42940111 304.88877386 -171.2421875 307.47265625 C-171.8405542 308.32577393 -172.4389209 309.1788916 -173.05541992 310.05786133 C-174.16716899 311.64260966 -175.27926646 313.22711368 -176.3918457 314.8112793 C-202.7175419 352.3760694 -229.07484599 390.28988485 -251.82421875 430.15625 C-259.61608227 443.5049828 -269.37718087 450.41876083 -284.10546875 454.734375 C-291.70638388 456.47846095 -299.16157729 456.52863643 -306.9375 456.5625 C-308.69610352 456.5934375 -308.69610352 456.5934375 -310.49023438 456.625 C-317.44640362 456.65607167 -324.2707102 456.45497327 -330.625 453.3125 C-332.625 450.3125 -332.625 450.3125 -332.359375 447.94140625 C-328.98655204 435.86741768 -322.22351644 426.21450019 -315.3359375 415.8984375 C-312.68250603 411.88799998 -310.11953792 407.8223353 -307.5625 403.75 C-306.56641008 402.16666426 -305.57031634 400.58333092 -304.57421875 399 C-304.0848584 398.22140625 -303.59549805 397.4428125 -303.09130859 396.640625 C-301.65576188 394.36134203 -300.2138758 392.0862162 -298.76953125 389.8125 C-287.70073991 372.37657186 -276.85376577 354.79940929 -266.27124023 337.06396484 C-263.3945192 332.24648022 -260.49118911 327.44621419 -257.5625 322.66015625 C-250.30412986 310.79060078 -243.14985687 298.8887285 -236.36083984 286.74145508 C-232.59548006 280.00556681 -228.72623735 273.33810893 -224.8125 266.6875 C-213.2921841 247.05169709 -202.49769566 227.00141992 -191.6875 206.96875 C-189.72455955 203.33459072 -187.74660484 199.70951931 -185.75 196.09375 C-177.81658898 181.70945455 -170.29432042 167.12752807 -162.80796814 152.50752258 C-160.52734796 148.05815371 -158.22538378 143.62082708 -155.90625 139.19140625 C-139.28791171 107.41979407 -123.46074332 75.13994492 -108.9765625 42.3359375 C-108.56559326 41.40821533 -108.15462402 40.48049316 -107.73120117 39.5246582 C-106.98424944 37.83118271 -106.24413424 36.13466447 -105.51293945 34.43432617 C-100.09530004 22.10540538 -90.49007783 17.72444812 -78.43359375 12.75390625 C-64.59629975 7.40157649 -50.25065621 4.56197777 -35.625 2.3125 C-34.47837891 2.13243408 -34.47837891 2.13243408 -33.30859375 1.94873047 C-22.25289307 0.28988093 -11.15917443 0.08777553 0 0 Z " fill="#FEFEFE" transform="translate(5555.625,249.6875)"/>
<path d="M0 0 C2.93894369 2.71852292 3.86914235 4.15892303 4.484375 8.11328125 C3.80022977 13.60299502 1.13482975 16.62262985 -2.25 20.875 C-3.4245129 22.39118939 -4.59626544 23.90952007 -5.765625 25.4296875 C-6.41789062 26.2767627 -7.07015625 27.12383789 -7.7421875 27.99658203 C-16.83994248 40.09872107 -25.22219058 52.70461724 -33.5 65.375 C-34.51772466 66.92912846 -35.53546573 68.48324618 -36.55322266 70.03735352 C-49.46290975 89.7712656 -61.81976194 109.8103871 -74 130 C-74.56783203 130.94085449 -75.13566406 131.88170898 -75.72070312 132.85107422 C-88.34402326 153.78435572 -100.72359621 174.86171184 -113 196 C-113.61133789 197.0523584 -114.22267578 198.1047168 -114.85253906 199.18896484 C-122.88955185 213.03700174 -130.80873148 226.94501118 -138.60546875 240.9296875 C-140.79911929 244.86162001 -143.00873957 248.78362193 -145.23828125 252.6953125 C-152.77199983 265.91494314 -160.03097152 279.26888277 -167.17243958 292.70329285 C-169.25173594 296.61002173 -171.35651767 300.5019741 -173.4765625 304.38671875 C-181.12608317 318.44304662 -188.44196783 332.65412383 -195.62573242 346.95391846 C-196.65740395 349.00738346 -197.69089892 351.05993349 -198.72631836 353.11151123 C-200.19267846 356.02028334 -201.65032931 358.93325758 -203.10546875 361.84765625 C-203.54030075 362.70820114 -203.97513275 363.56874603 -204.42314148 364.45536804 C-207.04028161 369.72860896 -209.1933036 375.03044029 -211.09565735 380.60276794 C-212.81706761 385.16588332 -214.88351475 388.2556765 -219 391 C-226.45084908 391.93135613 -233.42206785 389.36924356 -239.61328125 385.26953125 C-254.67337923 373.5353025 -263.96495691 361.14326765 -267.7421875 342.296875 C-269.03078886 331.67156554 -266.12531212 323.53657384 -262 314 C-261.37714111 312.53626953 -261.37714111 312.53626953 -260.74169922 311.04296875 C-248.18448862 281.73237245 -233.66672823 253.27191769 -219.4375 224.75 C-219.03433563 223.94090179 -218.63117126 223.13180359 -218.21578979 222.29818726 C-213.43726718 212.71701363 -208.55486876 203.19882916 -203.55142212 193.73312378 C-191.82722843 171.54943525 -181.16592979 148.93198619 -171 126 C-170.71922607 125.36819824 -170.43845215 124.73639648 -170.14916992 124.08544922 C-157.7333923 96.13079506 -145.08650513 67.14304788 -142.11181641 36.40551758 C-140.95815216 25.59476472 -136.27700939 18.93513059 -128 12 C-99.5259488 -9.26710967 -30.58680759 -19.79146373 0 0 Z " fill="#FEFEFE" transform="translate(3175,496)"/>
<path d="M0 0 C6.74331387 5.94227227 10.38711676 14.53863057 11.03515625 23.453125 C10.90999564 32.52031619 9.47031503 41.07151673 5 49 C4.52820312 49.87140625 4.05640625 50.7428125 3.5703125 51.640625 C-3.49643003 63.74538014 -13.93666861 71.27069586 -26 78 C-26.96679688 78.54527344 -27.93359375 79.09054687 -28.9296875 79.65234375 C-49.75417173 90.74180487 -73.12274131 93.867177 -96 88 C-104.3086743 85.14016947 -110.0042719 80.38865726 -114.28125 72.6953125 C-119.16583425 62.3330159 -119.16119168 50.92304624 -116 40 C-107.84696706 19.4784455 -91.60146915 7.6150744 -72.00683594 -1.14794922 C-66.45479364 -3.50520319 -60.80682315 -5.36455494 -55 -7 C-54.12730469 -7.24621094 -53.25460938 -7.49242187 -52.35546875 -7.74609375 C-35.4194889 -11.61336474 -14.10602505 -10.85472708 0 0 Z " fill="#FEFEFE" transform="translate(3235,345)"/>
<path d="M0 0 C6.33776363 6.62439615 8.28493711 15.07021127 8.4921875 24 C8.02518818 38.89878464 1.93420211 50.58706306 -8.83984375 60.80859375 C-27.14925969 76.79207686 -51.62878247 86.76693256 -75.9453125 85.4375 C-88.31754987 84.11759783 -100.27732041 80.93540623 -108.9453125 71.4375 C-114.97795203 62.9770909 -114.76795423 53.43328635 -113.9453125 43.4375 C-111.03494102 28.18434826 -101.40079546 16.93390742 -88.9453125 8.4375 C-64.75910844 -7.53117193 -25.32028813 -20.33758083 0 0 Z " fill="#FEFEFE" transform="translate(5251.9453125,750.5625)"/>
</svg>
